<svg width="206" height="42" viewBox="0 0 206 42" fill="none" xmlns="http://www.w3.org/2000/svg">
<path d="M206 10.5C206 13.2614 203.761 15.5 201 15.5C198.239 15.5 196 13.2614 196 10.5C196 7.73858 198.239 5.5 201 5.5C203.761 5.5 206 7.73858 206 10.5Z" fill="#F88689"/>
<path d="M16.6797 15.2322C16.5471 14.0556 16.0002 13.1442 15.0391 12.4979C14.0779 11.8433 12.8681 11.516 11.4098 11.516C10.3658 11.516 9.46259 11.6817 8.70028 12.0131C7.93797 12.3363 7.34553 12.7837 6.92294 13.3555C6.50864 13.9189 6.30149 14.5611 6.30149 15.282C6.30149 15.8868 6.44235 16.4089 6.72408 16.848C7.01409 17.2872 7.3911 17.6559 7.85511 17.9542C8.32741 18.2442 8.83286 18.4886 9.37145 18.6875C9.91004 18.8781 10.4279 19.0355 10.9251 19.1598L13.4109 19.8061C14.2229 20.005 15.0556 20.2743 15.9091 20.614C16.7625 20.9537 17.5539 21.4012 18.283 21.9563C19.0122 22.5115 19.6005 23.1992 20.0479 24.0195C20.5037 24.8398 20.7315 25.8217 20.7315 26.9652C20.7315 28.407 20.3587 29.6871 19.6129 30.8058C18.8755 31.9244 17.8024 32.8068 16.3938 33.4531C14.9935 34.0994 13.299 34.4226 11.3104 34.4226C9.40459 34.4226 7.75568 34.1201 6.36364 33.5153C4.97159 32.9104 3.88198 32.0528 3.09482 30.9425C2.30765 29.8239 1.87263 28.4981 1.78977 26.9652H5.64276C5.71733 27.8849 6.01563 28.6514 6.53764 29.2646C7.06795 29.8694 7.74325 30.321 8.56357 30.6193C9.39216 30.9093 10.2995 31.0543 11.2855 31.0543C12.371 31.0543 13.3363 30.8845 14.1815 30.5447C15.0349 30.1967 15.7061 29.7161 16.195 29.103C16.6838 28.4815 16.9283 27.7565 16.9283 26.9279C16.9283 26.1739 16.7128 25.5566 16.282 25.076C15.8594 24.5954 15.2835 24.1977 14.5543 23.8828C13.8335 23.5679 13.0173 23.2904 12.1058 23.0501L9.09801 22.2298C7.05966 21.6746 5.44389 20.8584 4.25071 19.7812C3.06581 18.7041 2.47337 17.2789 2.47337 15.5057C2.47337 14.0391 2.87109 12.7589 3.66655 11.6651C4.462 10.5714 5.53918 9.72206 6.89808 9.11719C8.25698 8.50402 9.78989 8.19744 11.4968 8.19744C13.2203 8.19744 14.7408 8.49988 16.0582 9.10476C17.384 9.70964 18.428 10.5424 19.1903 11.603C19.9527 12.6553 20.3504 13.8651 20.3835 15.2322H16.6797ZM33.9342 14.9091V17.892H23.5063V14.9091H33.9342ZM26.3028 10.3352H30.0191V28.3945C30.0191 29.1154 30.1268 29.6581 30.3422 30.0227C30.5577 30.379 30.8353 30.6235 31.175 30.756C31.523 30.8803 31.9 30.9425 32.306 30.9425C32.6043 30.9425 32.8653 30.9218 33.089 30.8803C33.3128 30.8389 33.4868 30.8058 33.6111 30.7809L34.2822 33.8509C34.0668 33.9337 33.7602 34.0166 33.3625 34.0994C32.9648 34.1906 32.4676 34.2403 31.871 34.2486C30.8933 34.2652 29.9818 34.0911 29.1366 33.7266C28.2915 33.362 27.6079 32.7985 27.0858 32.0362C26.5638 31.2739 26.3028 30.3169 26.3028 29.1651V10.3352ZM45.8816 34.3853C44.0918 34.3853 42.5299 33.9751 41.1958 33.1548C39.8618 32.3345 38.8261 31.1869 38.0886 29.712C37.3511 28.2371 36.9824 26.5136 36.9824 24.5415C36.9824 22.5612 37.3511 20.8294 38.0886 19.3462C38.8261 17.863 39.8618 16.7113 41.1958 15.891C42.5299 15.0707 44.0918 14.6605 45.8816 14.6605C47.6713 14.6605 49.2333 15.0707 50.5673 15.891C51.9013 16.7113 52.9371 17.863 53.6745 19.3462C54.412 20.8294 54.7807 22.5612 54.7807 24.5415C54.7807 26.5136 54.412 28.2371 53.6745 29.712C52.9371 31.1869 51.9013 32.3345 50.5673 33.1548C49.2333 33.9751 47.6713 34.3853 45.8816 34.3853ZM45.894 31.2656C47.054 31.2656 48.0152 30.959 48.7775 30.3459C49.5398 29.7327 50.1033 28.9165 50.4679 27.8974C50.8407 26.8782 51.0272 25.7554 51.0272 24.5291C51.0272 23.3111 50.8407 22.1925 50.4679 21.1733C50.1033 20.1458 49.5398 19.3214 48.7775 18.6999C48.0152 18.0785 47.054 17.7678 45.894 17.7678C44.7257 17.7678 43.7562 18.0785 42.9856 18.6999C42.2233 19.3214 41.6557 20.1458 41.2828 21.1733C40.9183 22.1925 40.736 23.3111 40.736 24.5291C40.736 25.7554 40.9183 26.8782 41.2828 27.8974C41.6557 28.9165 42.2233 29.7327 42.9856 30.3459C43.7562 30.959 44.7257 31.2656 45.894 31.2656ZM58.9289 34V14.9091H62.5209V17.9418H62.7197C63.0677 16.9143 63.6809 16.1064 64.5592 15.5181C65.4458 14.9215 66.4484 14.6232 67.567 14.6232C67.799 14.6232 68.0725 14.6315 68.3873 14.6481C68.7105 14.6647 68.9632 14.6854 69.1455 14.7102V18.2649C68.9964 18.2235 68.7312 18.1779 68.3501 18.1282C67.9689 18.0702 67.5877 18.0412 67.2066 18.0412C66.3283 18.0412 65.5452 18.2276 64.8575 18.6005C64.1781 18.9651 63.6395 19.4747 63.2417 20.1293C62.844 20.7756 62.6452 21.513 62.6452 22.3416V34H58.9289ZM75.2916 41.1591C74.7365 41.1591 74.231 41.1135 73.7753 41.0224C73.3196 40.9395 72.9798 40.8484 72.7561 40.7489L73.651 37.7038C74.3305 37.8861 74.9353 37.9648 75.4656 37.94C75.9959 37.9151 76.4641 37.7163 76.8701 37.3434C77.2844 36.9705 77.649 36.3615 77.9639 35.5163L78.4237 34.2486L71.4387 14.9091H75.4159L80.2508 29.7244H80.4497L85.2845 14.9091H89.2742L81.4067 36.5479C81.0421 37.5423 80.5781 38.3833 80.0146 39.071C79.4512 39.767 78.78 40.2891 78.0012 40.6371C77.2223 40.9851 76.3191 41.1591 75.2916 41.1591ZM106.948 15.2322C106.816 14.0556 106.269 13.1442 105.308 12.4979C104.346 11.8433 103.137 11.516 101.678 11.516C100.634 11.516 99.7311 11.6817 98.9688 12.0131C98.2065 12.3363 97.6141 12.7837 97.1915 13.3555C96.7772 13.9189 96.57 14.5611 96.57 15.282C96.57 15.8868 96.7109 16.4089 96.9926 16.848C97.2826 17.2872 97.6597 17.6559 98.1237 17.9542C98.596 18.2442 99.1014 18.4886 99.64 18.6875C100.179 18.8781 100.696 19.0355 101.194 19.1598L103.679 19.8061C104.491 20.005 105.324 20.2743 106.178 20.614C107.031 20.9537 107.822 21.4012 108.552 21.9563C109.281 22.5115 109.869 23.1992 110.316 24.0195C110.772 24.8398 111 25.8217 111 26.9652C111 28.407 110.627 29.6871 109.881 30.8058C109.144 31.9244 108.071 32.8068 106.662 33.4531C105.262 34.0994 103.568 34.4226 101.579 34.4226C99.6731 34.4226 98.0242 34.1201 96.6322 33.5153C95.2401 32.9104 94.1505 32.0528 93.3634 30.9425C92.5762 29.8239 92.1412 28.4981 92.0583 26.9652H95.9113C95.9859 27.8849 96.2842 28.6514 96.8062 29.2646C97.3365 29.8694 98.0118 30.321 98.8321 30.6193C99.6607 30.9093 100.568 31.0543 101.554 31.0543C102.64 31.0543 103.605 30.8845 104.45 30.5447C105.303 30.1967 105.975 29.7161 106.464 29.103C106.952 28.4815 107.197 27.7565 107.197 26.9279C107.197 26.1739 106.981 25.5566 106.551 25.076C106.128 24.5954 105.552 24.1977 104.823 23.8828C104.102 23.5679 103.286 23.2904 102.374 23.0501L99.3666 22.2298C97.3282 21.6746 95.7124 20.8584 94.5193 19.7812C93.3344 18.7041 92.7419 17.2789 92.7419 15.5057C92.7419 14.0391 93.1396 12.7589 93.9351 11.6651C94.7306 10.5714 95.8077 9.72206 97.1666 9.11719C98.5255 8.50402 100.058 8.19744 101.765 8.19744C103.489 8.19744 105.009 8.49988 106.327 9.10476C107.653 9.70964 108.697 10.5424 109.459 11.603C110.221 12.6553 110.619 13.8651 110.652 15.2322H106.948ZM123.333 34.3853C121.485 34.3853 119.894 33.9669 118.56 33.13C117.234 32.2848 116.215 31.1206 115.502 29.6374C114.79 28.1542 114.434 26.4556 114.434 24.5415C114.434 22.6026 114.798 20.8916 115.527 19.4084C116.257 17.9169 117.284 16.7527 118.61 15.9158C119.935 15.079 121.497 14.6605 123.295 14.6605C124.746 14.6605 126.038 14.9298 127.173 15.4684C128.308 15.9987 129.224 16.7444 129.92 17.7056C130.624 18.6668 131.043 19.7895 131.175 21.0739H127.559C127.36 20.179 126.904 19.4084 126.191 18.7621C125.487 18.1158 124.542 17.7926 123.358 17.7926C122.322 17.7926 121.415 18.0661 120.636 18.6129C119.865 19.1515 119.264 19.9221 118.833 20.9247C118.403 21.919 118.187 23.0956 118.187 24.4545C118.187 25.8466 118.398 27.0481 118.821 28.0589C119.244 29.0698 119.84 29.8529 120.611 30.408C121.39 30.9632 122.305 31.2408 123.358 31.2408C124.062 31.2408 124.7 31.1123 125.272 30.8555C125.852 30.5903 126.336 30.2133 126.726 29.7244C127.124 29.2356 127.401 28.6473 127.559 27.9595H131.175C131.043 29.1941 130.641 30.2962 129.97 31.2656C129.299 32.2351 128.4 32.9974 127.273 33.5526C126.154 34.1077 124.841 34.3853 123.333 34.3853ZM140.705 34.4226C139.496 34.4226 138.402 34.1989 137.424 33.7514C136.446 33.2957 135.672 32.637 135.1 31.7752C134.536 30.9135 134.255 29.857 134.255 28.6058C134.255 27.5286 134.462 26.642 134.876 25.946C135.29 25.25 135.85 24.699 136.554 24.293C137.258 23.887 138.046 23.5804 138.916 23.3732C139.786 23.1661 140.672 23.0086 141.575 22.9009C142.719 22.7683 143.647 22.6606 144.359 22.5778C145.072 22.4866 145.59 22.3416 145.913 22.1428C146.236 21.9439 146.398 21.6207 146.398 21.1733V21.0863C146.398 20.0008 146.091 19.1598 145.478 18.5632C144.873 17.9666 143.97 17.6683 142.769 17.6683C141.517 17.6683 140.531 17.9459 139.81 18.5011C139.098 19.0479 138.605 19.657 138.331 20.3281L134.839 19.5327C135.253 18.3726 135.858 17.4363 136.653 16.7237C137.457 16.0028 138.381 15.4808 139.425 15.1577C140.469 14.8262 141.567 14.6605 142.719 14.6605C143.481 14.6605 144.289 14.7517 145.142 14.9339C146.004 15.108 146.808 15.4311 147.554 15.9034C148.308 16.3757 148.925 17.051 149.406 17.9293C149.886 18.7994 150.127 19.9304 150.127 21.3224V34H146.497V31.3899H146.348C146.108 31.8705 145.747 32.3428 145.267 32.8068C144.786 33.2708 144.169 33.6561 143.415 33.9627C142.661 34.2693 141.758 34.4226 140.705 34.4226ZM141.513 31.4396C142.541 31.4396 143.419 31.2366 144.148 30.8306C144.886 30.4246 145.445 29.8943 145.826 29.2397C146.216 28.5768 146.41 27.8684 146.41 27.1143V24.6534C146.278 24.786 146.021 24.9103 145.64 25.0263C145.267 25.134 144.84 25.2293 144.359 25.3121C143.879 25.3867 143.411 25.4571 142.955 25.5234C142.499 25.5814 142.118 25.6312 141.812 25.6726C141.091 25.7637 140.432 25.917 139.835 26.1325C139.247 26.3479 138.775 26.6586 138.418 27.0646C138.07 27.4624 137.896 27.9927 137.896 28.6555C137.896 29.5753 138.236 30.2713 138.916 30.7436C139.595 31.2076 140.461 31.4396 141.513 31.4396ZM155.076 41.1591V14.9091H158.706V18.0039H159.016C159.232 17.6062 159.542 17.1463 159.949 16.6243C160.355 16.1023 160.918 15.6465 161.639 15.2571C162.36 14.8594 163.313 14.6605 164.498 14.6605C166.039 14.6605 167.414 15.05 168.624 15.8288C169.834 16.6077 170.782 17.7305 171.47 19.1971C172.166 20.6637 172.514 22.4286 172.514 24.4918C172.514 26.555 172.17 28.3241 171.483 29.799C170.795 31.2656 169.85 32.3967 168.649 33.1921C167.447 33.9793 166.076 34.3729 164.535 34.3729C163.375 34.3729 162.426 34.1781 161.689 33.7887C160.959 33.3993 160.388 32.9435 159.973 32.4215C159.559 31.8995 159.24 31.4355 159.016 31.0295H158.793V41.1591H155.076ZM158.718 24.4545C158.718 25.7969 158.913 26.9735 159.302 27.9844C159.692 28.9953 160.255 29.7866 160.993 30.3583C161.73 30.9218 162.633 31.2035 163.702 31.2035C164.812 31.2035 165.74 30.9093 166.486 30.321C167.232 29.7244 167.795 28.9165 168.176 27.8974C168.566 26.8782 168.761 25.7306 168.761 24.4545C168.761 23.1951 168.57 22.064 168.189 21.0614C167.816 20.0588 167.253 19.2675 166.499 18.6875C165.753 18.1075 164.821 17.8175 163.702 17.8175C162.625 17.8175 161.713 18.0951 160.968 18.6502C160.23 19.2054 159.671 19.9801 159.29 20.9744C158.909 21.9687 158.718 23.1288 158.718 24.4545ZM184.906 34.3853C183.025 34.3853 181.405 33.9834 180.046 33.1797C178.696 32.3677 177.652 31.2283 176.914 29.7617C176.185 28.2868 175.82 26.5592 175.82 24.5788C175.82 22.6233 176.185 20.8999 176.914 19.4084C177.652 17.9169 178.679 16.7527 179.996 15.9158C181.322 15.079 182.872 14.6605 184.645 14.6605C185.722 14.6605 186.766 14.8387 187.777 15.195C188.788 15.5513 189.695 16.1106 190.499 16.8729C191.303 17.6352 191.937 18.6254 192.401 19.8434C192.865 21.0531 193.097 22.5239 193.097 24.2557V25.5732H177.921V22.7891H189.455C189.455 21.8113 189.256 20.9454 188.858 20.1914C188.461 19.4291 187.901 18.8284 187.18 18.3892C186.468 17.95 185.631 17.7305 184.67 17.7305C183.626 17.7305 182.714 17.9873 181.935 18.5011C181.165 19.0065 180.568 19.6694 180.146 20.4897C179.731 21.3017 179.524 22.1842 179.524 23.1371V25.3121C179.524 26.5882 179.748 27.6737 180.195 28.5685C180.651 29.4634 181.285 30.147 182.097 30.6193C182.909 31.0833 183.858 31.3153 184.943 31.3153C185.647 31.3153 186.29 31.2159 186.87 31.017C187.45 30.8099 187.951 30.5033 188.374 30.0973C188.796 29.6913 189.119 29.19 189.343 28.5934L192.86 29.2273C192.579 30.263 192.073 31.1703 191.344 31.9492C190.623 32.7198 189.716 33.3205 188.622 33.7514C187.537 34.174 186.298 34.3853 184.906 34.3853Z" fill="black"/>
</svg>
